:FULLY-SPECIFIED
:FORCE-ALL-JOINTS-BE-3DOF
:DEGREES
849
root 3.70276 16.5408 27.9224 -14.5479 25.5614 356.267
lfemur -16.2796 7.26155 -18.1939
ltibia 37.0985 0 0
lfoot -7.32149 -21.6321 0
ltoes 23.8794 0 0
rfemur -52.7816 -4.54111 7.93577
rtibia 46.6175 0 0
rfoot 0.799104 -3.65866 0
rtoes -14.8881 0 0
lowerback 11.3198 -0.692536 -3.76048
upperback 3.52817 -1.36124 -1.37488
thorax -2.47626 -0.668202 0.993877
lowerneck -6.51319 -3.73026 1.99848
upperneck 6.55637 -5.46394 3.60571
head 3.34991 -2.50152 0.571716
lclavicle -1.10123e-14 1.50466e-14 0
lhumerus -38.091 -20.7464 82.4219
lradius 58.0143 0 0
lwrist 21.4494 0 0
lhand 4.05853 2.67512 0
lfingers 7.12502 0 0
lthumb 29.4465 30.0709 0
rclavicle -1.10123e-14 1.50466e-14 0
rhumerus -47.8706 5.74331 -59.6125
rradius 55.2552 0 0
rwrist 2.60321 0 0
rhand -8.22171 -28.7677 0
rfingers 7.12502 0 0
rthumb 17.6922 -777.925 0
850
root 3.72919 16.5429 28.0438 -14.5633 24.9055 356.478
lfemur -16.0135 7.20703 -18.2565
ltibia 36.9389 0 0
lfoot -7.15879 -22.121 0
ltoes 23.9206 0 0
rfemur -53.3218 -4.36014 7.86848
rtibia 46.6364 0 0
rfoot 1.04966 -3.24304 0
rtoes -14.7996 0 0
lowerback 11.466 -0.76216 -3.80927
upperback 3.59033 -1.46247 -1.35134
thorax -2.49415 -0.718762 1.05193
lowerneck -6.53019 -3.69067 2.03251
upperneck 6.65524 -5.4184 3.58902
head 3.38252 -2.47701 0.56083
lclavicle -1.08899e-14 1.51297e-14 0
lhumerus -37.8592 -20.8964 82.2678
lradius 57.8802 0 0
lwrist 21.5642 0 0
lhand 4.41326 2.78646 0
lfingers 7.12502 0 0
lthumb 29.7867 30.1418 0
rclavicle -1.08899e-14 1.51297e-14 0
rhumerus -48.0818 5.13197 -58.9133
rradius 54.9656 0 0
rwrist 2.51693 0 0
rhand -8.06865 -28.8679 0
rfingers 7.12502 0 0
rthumb 17.8399 -778.018 0
851
root 3.75493 16.5448 28.1622 -14.578 24.266 356.685
lfemur -15.7535 7.15545 -18.3183
ltibia 36.7841 0 0
lfoot -7.00222 -22.5932 0
ltoes 23.9555 0 0
rfemur -53.854 -4.18808 7.81201
rtibia 46.6623 0 0
rfoot 1.29486 -2.83359 0
rtoes -14.7173 0 0
lowerback 11.6099 -0.830108 -3.85784
upperback 3.65141 -1.56151 -1.32904
thorax -2.51175 -0.768226 1.10854
lowerneck -6.54693 -3.65186 2.06568
upperneck 6.75019 -5.37366 3.57294
head 3.41387 -2.45297 0.550304
lclavicle -1.07369e-14 1.52027e-14 0
lhumerus -37.6329 -21.0455 82.1179
lradius 57.752 0 0
lwrist 21.6768 0 0
lhand 4.7616 2.89612 0
lfingers 7.12502 0 0
lthumb 30.1208 30.2114 0
rclavicle -1.07369e-14 1.52027e-14 0
rhumerus -48.2869 4.53 -58.2299
rradius 54.6858 0 0
rwrist 2.42897 0 0
rhand -7.92362 -28.9646 0
rfingers 7.12502 0 0
rthumb 17.9797 -778.108 0
852
root 3.77996 16.5467 28.2776 -14.5918 23.6437 356.888
lfemur -15.4998 7.10691 -18.3793
ltibia 36.6344 0 0
lfoot -6.85197 -23.0482 0
ltoes 23.9838 0 0
rfemur -54.3777 -4.02519 7.76668
rtibia 46.6955 0 0
rfoot 1.53451 -2.43055 0
rtoes -14.6413 0 0
lowerback 11.7514 -0.896318 -3.9062
upperback 3.71137 -1.65829 -1.30801
thorax -2.52904 -0.816555 1.16363
lowerneck -6.5634 -3.61385 2.09796
upperneck 6.8411 -5.32977 3.55751
head 3.4439 -2.42942 0.540148
lclavicle -1.05523e-14 1.52652e-14 0
lhumerus -37.4121 -21.1936 81.9724
lradius 57.6296 0 0
lwrist 21.787 0 0
lhand 5.1033 3.00404 0
lfingers 7.12502 0 0
lthumb 30.4485 30.2795 0
rclavicle -1.05523e-14 1.52652e-14 0
rhumerus -48.4858 3.93781 -57.5628
rradius 54.416 0 0
rwrist 2.33933 0 0
rhand -7.78689 -29.0578 0
rfingers 7.12502 0 0
rthumb 18.1116 -778.194 0
